<?xml version="1.0" standalone="no"?>
<!DOCTYPE svg PUBLIC "-//W3C//DTD SVG 20010904//EN"
 "http://www.w3.org/TR/2001/REC-SVG-20010904/DTD/svg10.dtd">
<svg version="1.0" xmlns="http://www.w3.org/2000/svg"
 width="1188.000000pt" height="1188.000000pt" viewBox="0 0 1188.000000 1188.000000"
 preserveAspectRatio="xMidYMid meet">

<g transform="translate(0.000000,1188.000000) scale(0.100000,-0.100000)"
fill="#000000" stroke="none">
<path d="M5610 11873 c-1152 -67 -2292 -484 -3216 -1175 -1049 -785 -1804
-1887 -2163 -3158 -189 -671 -259 -1426 -196 -2119 102 -1112 503 -2161 1160
-3036 328 -437 764 -874 1195 -1197 1164 -872 2627 -1290 4072 -1163 984 87
1931 415 2747 952 583 384 1080 851 1499 1408 563 751 947 1649 1102 2581 58
352 63 416 67 905 6 577 -12 790 -107 1259 -288 1426 -1102 2707 -2274 3577
-925 687 -2001 1082 -3166 1163 -132 9 -585 11 -720 3z m895 -298 c937 -99
1796 -404 2566 -911 514 -338 1023 -816 1399 -1314 358 -474 653 -1034 844
-1600 331 -983 386 -2028 160 -3042 -292 -1316 -1055 -2495 -2134 -3299 -1741
-1298 -4057 -1489 -5985 -495 -1258 648 -2228 1749 -2717 3081 -231 628 -340
1244 -342 1930 -1 518 43 891 164 1383 190 770 561 1525 1052 2144 961 1211
2360 1974 3893 2122 239 24 244 24 610 20 220 -2 393 -8 490 -19z"/>
<path d="M5879 10732 c-41 -21 -59 -38 -76 -72 -22 -43 -24 -61 -33 -355 -5
-170 -10 -467 -11 -660 0 -192 -4 -374 -7 -404 l-7 -53 -91 -23 c-310 -78
-565 -278 -708 -555 -60 -116 -82 -182 -115 -340 l-27 -135 -195 -81 c-107
-44 -241 -102 -299 -128 -58 -26 -126 -57 -152 -68 l-47 -20 -48 39 c-141 118
-305 183 -457 183 -125 0 -313 -72 -419 -159 -132 -109 -192 -228 -224 -440
l-8 -53 -165 -75 c-91 -41 -203 -91 -250 -112 -47 -21 -188 -88 -315 -148
-126 -60 -257 -122 -291 -137 l-61 -27 -67 50 c-289 219 -686 197 -911 -52
-239 -264 -228 -673 25 -928 196 -197 499 -244 758 -117 70 35 177 128 223
194 79 116 129 262 129 381 l0 73 518 259 517 258 89 -84 c138 -130 276 -187
442 -185 114 1 204 22 298 68 223 111 356 317 356 555 0 25 6 53 13 62 18 24
525 267 558 267 4 0 19 -33 34 -72 65 -174 98 -231 227 -385 l68 -82 -277
-338 c-398 -482 -381 -466 -484 -476 -148 -14 -346 -137 -426 -263 l-26 -41
-96 -7 c-53 -3 -132 -6 -176 -6 -139 0 -254 -18 -320 -50 -106 -51 -262 -202
-725 -700 -79 -85 -147 -156 -151 -158 -4 -2 -33 9 -65 23 -223 99 -519 61
-692 -88 -112 -97 -188 -208 -233 -337 -33 -95 -33 -275 0 -380 64 -208 217
-379 403 -452 67 -27 327 -38 417 -18 158 35 361 198 434 350 55 112 71 187
72 320 0 94 -4 129 -24 191 l-24 76 79 94 c74 87 288 329 538 607 l111 124
100 -6 c55 -4 139 -9 186 -13 l87 -6 16 -66 c22 -88 87 -200 163 -280 54 -56
61 -68 50 -82 -6 -9 -74 -90 -149 -180 -76 -89 -147 -181 -158 -203 -34 -72
-40 -140 -40 -495 l-1 -346 -227 -234 -228 -234 -54 13 c-83 21 -202 15 -292
-13 -290 -92 -441 -379 -347 -664 56 -171 191 -291 382 -340 77 -19 220 -13
296 13 134 45 273 188 319 328 25 75 29 197 11 303 l-11 63 98 108 c53 59 163
178 243 265 l146 158 93 -98 93 -98 -6 -390 c-4 -214 -10 -432 -14 -484 l-8
-93 -49 -41 c-85 -72 -125 -120 -160 -192 -72 -150 -71 -304 4 -454 93 -186
364 -304 563 -245 160 48 267 148 329 309 30 77 33 220 6 310 -38 127 -112
229 -200 276 l-44 23 -6 170 c-3 94 -10 338 -16 541 -6 204 -15 392 -20 418
-5 26 -24 69 -42 95 -50 73 -231 254 -345 344 l-103 82 0 206 0 205 147 185
c191 239 217 265 273 279 165 39 282 101 386 205 81 81 125 159 155 275 24 91
28 225 10 301 -20 86 -94 228 -155 300 -31 36 -56 72 -56 80 1 8 11 27 23 41
121 143 498 615 515 646 8 13 28 9 161 -33 l151 -47 0 -883 0 -882 -42 -7
c-190 -29 -406 -171 -547 -358 -49 -64 -114 -201 -138 -288 -28 -101 -25 -374
5 -493 24 -97 90 -246 142 -321 126 -184 305 -305 538 -365 l42 -11 0 -452 -1
-452 -87 -42 c-198 -94 -326 -296 -339 -534 -11 -192 52 -356 191 -494 64 -64
100 -90 171 -125 l90 -45 175 -3 175 -4 114 57 c261 131 367 315 359 622 -3
130 -3 130 -45 214 -75 150 -158 236 -315 325 l-73 42 0 447 0 448 69 19 c155
42 278 116 410 246 130 128 215 273 262 447 27 101 25 320 -4 429 -90 329
-371 620 -660 682 l-82 17 0 771 c0 424 3 821 7 883 l6 111 31 6 c17 3 75 20
129 37 79 25 103 29 122 21 38 -18 555 -638 555 -666 0 -8 -25 -45 -55 -83
-111 -138 -157 -261 -157 -423 0 -192 57 -335 187 -466 95 -96 183 -144 318
-173 48 -11 95 -25 104 -33 9 -7 94 -108 190 -225 l173 -212 0 -218 0 -218
-92 -80 c-153 -133 -294 -273 -353 -349 l-55 -72 0 -395 c0 -217 -3 -472 -7
-568 l-6 -174 -31 -16 c-52 -27 -149 -132 -178 -193 -97 -199 -70 -416 70
-569 101 -110 214 -153 386 -147 95 3 108 6 180 41 180 90 279 250 279 457 1
95 -17 150 -79 247 -45 71 -137 163 -162 163 -46 0 -47 4 -50 514 l-3 481 93
104 92 104 51 -54 c140 -152 352 -390 389 -438 l41 -54 0 -172 0 -172 40 -79
c73 -145 211 -255 355 -282 101 -20 145 -22 203 -13 90 15 180 66 262 146 116
114 168 229 167 375 0 138 -54 261 -162 370 -123 125 -252 166 -465 149 l-90
-7 -232 234 -233 234 0 395 0 396 -59 77 c-32 42 -107 133 -166 202 -59 69
-112 135 -118 147 -9 20 -3 30 50 85 98 103 173 236 173 308 0 19 6 20 198 20
l197 -1 255 -275 c340 -367 406 -442 428 -486 17 -34 18 -41 5 -100 -9 -35
-15 -118 -15 -188 -1 -187 33 -298 136 -437 75 -102 227 -209 339 -239 62 -16
298 -19 378 -4 157 29 342 176 432 343 51 96 59 142 55 321 l-3 163 -47 94
c-94 189 -264 339 -432 383 -139 37 -301 29 -444 -20 l-76 -27 -145 154 c-248
263 -624 639 -671 670 -91 61 -261 89 -544 89 l-121 1 -34 50 c-71 105 -190
188 -340 240 -30 11 -68 19 -84 19 -63 0 -80 16 -407 405 -107 127 -227 267
-268 312 l-74 83 68 77 c108 124 184 256 224 393 13 41 26 78 29 82 6 7 555
-243 574 -261 4 -4 12 -50 18 -102 6 -52 19 -119 30 -151 59 -177 200 -321
399 -408 46 -20 75 -25 175 -28 224 -7 338 39 525 214 l55 51 230 -109 c127
-61 354 -168 505 -239 151 -72 277 -134 281 -140 3 -6 11 -52 17 -102 16 -131
47 -243 85 -307 51 -87 198 -228 287 -275 l75 -40 184 -3 c209 -4 236 1 352
71 151 90 268 249 305 413 24 109 16 284 -18 375 -45 122 -163 275 -268 346
-89 60 -174 86 -297 91 -184 7 -313 -33 -460 -144 l-73 -54 -197 91 c-447 206
-840 391 -870 409 -23 14 -33 28 -37 52 -25 176 -52 243 -141 351 -102 123
-250 217 -377 238 -68 12 -214 5 -288 -13 -74 -17 -168 -67 -234 -122 -34 -28
-69 -57 -78 -64 -13 -11 -49 2 -239 89 -123 56 -280 126 -349 156 -69 30 -129
58 -133 62 -4 4 -12 36 -17 72 -23 148 -118 362 -222 504 -108 147 -281 292
-445 374 -54 27 -175 66 -265 85 l-28 6 -1 438 c-1 641 -11 979 -31 1017 -33
61 -104 105 -172 105 -18 0 -58 -13 -87 -28z m281 -1957 c141 -33 258 -103
366 -218 112 -119 176 -250 204 -417 40 -241 -64 -533 -252 -706 -53 -49 -158
-111 -253 -150 -63 -25 -84 -28 -216 -32 -181 -5 -232 5 -363 71 -86 44 -116
66 -197 147 -139 137 -211 271 -238 440 -44 269 81 575 304 745 110 83 188
117 315 136 75 11 251 2 330 -16z m-428 -4549 c50 -24 109 -83 132 -130 47
-99 -13 -249 -119 -297 -176 -80 -377 99 -324 288 16 57 86 133 139 150 47 16
127 11 172 -11z"/>
<path d="M5868 8297 c-127 -48 -198 -189 -164 -329 51 -216 306 -287 466 -130
40 39 62 70 69 97 36 133 -18 278 -126 342 -38 22 -61 27 -127 30 -52 2 -94
-2 -118 -10z"/>
</g>
</svg>
