<?xml version="1.0" encoding="UTF-8" standalone="no"?>
<svg
   xmlns:dc="http://purl.org/dc/elements/1.1/"
   xmlns:cc="http://creativecommons.org/ns#"
   xmlns:rdf="http://www.w3.org/1999/02/22-rdf-syntax-ns#"
   xmlns:svg="http://www.w3.org/2000/svg"
   xmlns="http://www.w3.org/2000/svg"
   viewBox="0 0 60.16 70.719994"
   height="70.719994"
   width="60.16"
   xml:space="preserve"
   id="svg2"
   version="1.1"><metadata
     id="metadata8"><rdf:RDF><cc:Work
         rdf:about=""><dc:format>image/svg+xml</dc:format><dc:type
           rdf:resource="http://purl.org/dc/dcmitype/StillImage" /></cc:Work></rdf:RDF></metadata><defs
     id="defs6"><clipPath
       id="clipPath18"
       clipPathUnits="userSpaceOnUse"><path
         style="clip-rule:evenodd"
         id="path16"
         d="M 0,0 H 187.5 V 221.31148 H 0 Z" /></clipPath><clipPath
       id="clipPath30"
       clipPathUnits="userSpaceOnUse"><path
         style="clip-rule:evenodd"
         id="path28"
         d="M 0,0 H 184.42624 V 212.09016 H 0 Z" /></clipPath><linearGradient
       id="linearGradient44"
       spreadMethod="pad"
       gradientTransform="matrix(0.23999999,0,0,-0.23999999,-2.0296308e-8,4.481136)"
       gradientUnits="userSpaceOnUse"
       y2="0"
       x2="9"
       y1="5.3800001"
       x1="9"><stop
         id="stop38"
         offset="0"
         style="stop-opacity:1;stop-color:#005ba1" /><stop
         id="stop40"
         offset="0.199"
         style="stop-opacity:1;stop-color:#005ba1" /><stop
         id="stop42"
         offset="1"
         style="stop-opacity:1;stop-color:#0078d4" /></linearGradient><linearGradient
       id="linearGradient66"
       spreadMethod="pad"
       gradientTransform="matrix(0.23999999,0,0,-0.23999999,0,4.481136)"
       gradientUnits="userSpaceOnUse"
       y2="5.2870002"
       x2="9"
       y1="12.713"
       x1="9"><stop
         id="stop52"
         offset="0"
         style="stop-opacity:1;stop-color:#198ab3" /><stop
         id="stop54"
         offset="0.17200002"
         style="stop-opacity:1;stop-color:#32bedd" /><stop
         id="stop56"
         offset="0.5"
         style="stop-opacity:1;stop-color:#50e6ff" /><stop
         id="stop58"
         offset="0.50001001"
         style="stop-opacity:1;stop-color:#198ab3" /><stop
         id="stop60"
         offset="0.662"
         style="stop-opacity:1;stop-color:#32bedd" /><stop
         id="stop62"
         offset="0.97500002"
         style="stop-opacity:1;stop-color:#50e6ff" /><stop
         id="stop64"
         offset="1"
         style="stop-opacity:1;stop-color:#50e6ff" /></linearGradient></defs><g
     transform="matrix(0.31999998,0,0,0.31999998,0,1.7679999e-6)"
     id="g10"><g
       id="g12"><g
         clip-path="url(#clipPath18)"
         id="g14"><g
           transform="scale(3.0737705)"
           id="g20"><path
             id="path22"
             style="fill:#ffffff;fill-opacity:1;fill-rule:nonzero;stroke:none"
             d="M 0,0 H 61 V 72 H 0 Z" /></g></g></g><g
       id="g24"><g
         clip-path="url(#clipPath30)"
         id="g26"><g
           transform="matrix(11.746894,0,0,11.746894,0,0.32303831)"
           id="g32"><path
             id="path34"
             style="fill:#0078d4;fill-opacity:1;fill-rule:nonzero;stroke:none"
             d="M 7.8499999,0 0,4.4899998 V 13.46 L 7.8499999,18 15.7,13.51 V 4.5100002 Z M 14.25,12.57 7.8499999,16.27 1.4499998,12.609 V 5.3800001 l 6.4000001,-3.7 L 14.25,5.3900003 Z" /></g><g
           transform="matrix(11.746894,0,0,11.746894,-13.508928,0.32303831)"
           id="g36"><path
             id="path46"
             style="fill:url(#linearGradient44);fill-opacity:1;fill-rule:nonzero;stroke:none"
             d="M 1.15,4.4899998 2.5999999,5.3800001 9,1.6800001 l 6.4,3.7 L 16.85,4.4899998 9,0 Z" /></g><g
           transform="matrix(11.746894,0,0,11.746894,0,0.32303831)"
           id="g48"><path
             id="path50"
             style="fill:#50e6ff;fill-opacity:1;fill-rule:nonzero;stroke:none"
             d="M 11.59,10.475 C 11.511821,10.346365 11.404155,10.251032 11.267,10.189 11.063626,9.7450371 10.808538,9.3330975 10.501739,8.9531794 10.194939,8.5732622 9.8459463,8.237155 9.4547615,7.9448586 9.0635767,7.6525617 8.6423359,7.4131446 8.191041,7.2266073 7.7397461,7.0400701 7.2723989,6.9122009 6.789,6.8429999 l 6.477,-3.743 L 11.76,2.2360001 4.3839998,6.5 C 4.2366762,6.5848041 4.1304607,6.7057185 4.0653539,6.8627439 4.000246,7.0197697 3.9897382,7.1803675 4.0338297,7.3445377 c 0.044092,0.1641698 0.133646,0.297894 0.2686634,0.4011717 0.1350174,0.1032772 0.2875199,0.1547075 0.4575071,0.1542907 0.030522,-0.00562 0.060522,-0.013291 0.09,-0.023 l 0.125,0.5229997 C 5.208467,8.3449469 5.44488,8.3095884 5.6842389,8.2939262 5.9235978,8.278264 6.1626024,8.2825117 6.4012532,8.3066711 6.639904,8.3308306 6.8749113,8.374567 7.1062751,8.4378815 7.3376389,8.5011969 7.56217,8.5832167 7.7798676,8.6839418 7.9975657,8.784667 8.20543,8.902709 8.4034605,9.0380678 8.60149,9.1734257 8.7869568,9.324235 8.9598598,9.4904957 9.132762,9.6567545 9.2907181,9.836174 9.4337273,10.028752 c 0.1430101,0.192578 0.2691011,0.39566 0.378273,0.609247 l -7.349,4.247001 1.5,0.866 L 11.316,11.5 c 0.09942,-0.05944 0.180082,-0.138108 0.242,-0.236 l 0.075,-0.018 c -0.007,-0.029 -0.018,-0.055 -0.025,-0.084 0.05401,-0.108938 0.07942,-0.224183 0.07624,-0.345734 C 11.681053,10.694717 11.64964,10.580961 11.59,10.475 Z" /><path
             id="path68"
             style="fill:url(#linearGradient66);fill-opacity:1;fill-rule:nonzero;stroke:none"
             d="m 10.941,9.0129995 c -0.121473,0 -0.241779,0.011849 -0.360918,0.035546 -0.119138,0.023698 -0.23482,0.05879 -0.347047,0.1052752 -0.112226,0.046486 -0.21884,0.1034727 -0.3198403,0.1709595 C 9.8121939,9.3922672 9.7187462,9.4689569 9.6328516,9.5548515 9.546957,9.6407461 9.4702654,9.7341928 9.4027786,9.8351936 9.3352919,9.9361944 9.278306,10.042808 9.2318211,10.155034 c -0.046486,0.112227 -0.081577,0.227909 -0.1052752,0.347047 -0.023698,0.11914 -0.035547,0.239446 -0.035546,0.360918 -10e-7,0.121472 0.011848,0.241778 0.035546,0.360916 0.023698,0.119138 0.058789,0.234821 0.1052752,0.347047 0.046485,0.112226 0.1034717,0.21884 0.1709585,0.31984 0.067487,0.101001 0.1441774,0.194449 0.230072,0.280343 0.085895,0.08589 0.1793423,0.162584 0.2803431,0.230071 0.1010003,0.06749 0.2076143,0.124472 0.3198393,0.170958 0.112227,0.04649 0.227909,0.08158 0.347048,0.105277 0.119139,0.0237 0.239445,0.03555 0.360918,0.03555 0.121472,-1e-6 0.241777,-0.01185 0.360916,-0.03555 0.119138,-0.0237 0.234821,-0.05879 0.347046,-0.105277 0.112226,-0.04649 0.218841,-0.103472 0.319841,-0.170958 0.101001,-0.06749 0.194449,-0.144177 0.280344,-0.230071 0.08589,-0.08589 0.162584,-0.179343 0.230071,-0.280344 0.06749,-0.101 0.124472,-0.207613 0.170957,-0.319839 0.04649,-0.112226 0.08158,-0.227909 0.105277,-0.347047 0.0237,-0.119138 0.03555,-0.239443 0.03555,-0.360915 -1e-6,-0.121472 -0.01185,-0.241779 -0.03555,-0.360918 -0.0237,-0.119139 -0.05879,-0.234821 -0.105277,-0.347048 C 12.60369,10.042808 12.546704,9.9361944 12.479218,9.8351936 12.411731,9.7341928 12.33504,9.6407461 12.249147,9.5548515 12.163252,9.4689569 12.069804,9.3922672 11.968803,9.3247805 11.867803,9.2572937 11.761188,9.2003069 11.648962,9.153821 11.536737,9.107336 11.421054,9.0722446 11.301916,9.0485468 11.182777,9.0248489 11.062472,9.0129995 10.941,9.0129995 Z M 4.7589998,5.2670002 c -0.1214728,0 -0.2417788,0.011849 -0.3609175,0.035547 C 4.2789435,5.3262453 4.1632609,5.3613372 4.0510349,5.4078226 3.9388087,5.454308 3.8321953,5.5112944 3.7311943,5.5787811 3.6301937,5.6462674 3.5367463,5.7229581 3.4508519,5.8088522 3.3649576,5.8947463 3.2882671,5.9881935 3.2207806,6.0891943 3.1532941,6.1901956 3.0963078,6.2968092 3.0498221,6.4090352 c -0.046486,0.112226 -0.081578,0.2279081 -0.1052756,0.3470473 -0.023698,0.1191388 -0.035547,0.2394443 -0.035547,0.3609171 0,0.1214724 0.011849,0.2417779 0.035547,0.3609166 0.023698,0.1191383 0.05879,0.2348209 0.1052756,0.3470474 0.046486,0.112226 0.1034717,0.2188396 0.1709583,0.3198404 0.067486,0.1010008 0.1441769,0.1944485 0.2300713,0.2803431 0.085894,0.085895 0.1793418,0.1625852 0.2803428,0.230072 0.1010008,0.067487 0.2076142,0.1244726 0.3198404,0.1709585 0.112226,0.046486 0.2279082,0.081577 0.3470474,0.1052752 C 4.5172205,8.9551506 4.6375265,8.967 4.7589993,8.967 4.8804722,8.967 5.0007777,8.9551516 5.119916,8.9314537 5.2390552,8.9077559 5.3547378,8.8726635 5.4669638,8.8261776 5.5791898,8.7796917 5.6858029,8.7227049 5.7868037,8.6552181 5.887805,8.5877314 5.9812527,8.5110416 6.0671468,8.4251471 6.1530409,8.3392525 6.2297316,8.2458057 6.2972178,8.144805 6.3647046,8.0438042 6.4216909,7.9371905 6.4681768,7.8249645 6.5146623,7.712738 6.5497537,7.5970554 6.573452,7.4779172 6.5971503,7.3587785 6.6089993,7.2384729 6.6089997,7.1170001 6.6089993,6.9955273 6.5971503,6.8752217 6.573452,6.7560825 6.5497537,6.6369433 6.5146618,6.5212612 6.4681764,6.4090352 6.4216909,6.2968092 6.3647046,6.1901956 6.2972183,6.0891948 6.2297316,5.988194 6.1530414,5.8947468 6.0671477,5.8088527 5.9812531,5.7229586 5.8878055,5.6462679 5.7868047,5.5787811 5.6858034,5.5112944 5.5791898,5.454308 5.4669638,5.4078226 5.3547378,5.3613372 5.2390552,5.3262453 5.119916,5.3025475 5.0007777,5.2788491 4.8804727,5.2670002 4.7589998,5.2670002 Z" /></g></g></g></g></svg>