<?xml version="1.0" standalone="no"?>
<!DOCTYPE svg PUBLIC "-//W3C//DTD SVG 20010904//EN"
 "http://www.w3.org/TR/2001/REC-SVG-20010904/DTD/svg10.dtd">
<svg version="1.0" xmlns="http://www.w3.org/2000/svg"
 width="1024.000000pt" height="1024.000000pt" viewBox="0 0 1024.000000 1024.000000"
 preserveAspectRatio="xMidYMid meet">

<g transform="translate(0.000000,1024.000000) scale(0.100000,-0.100000)"
fill="#000000" stroke="none">
<path d="M4959 8257 c-157 -66 -232 -178 -233 -347 -1 -74 3 -93 27 -141 38
-79 96 -140 166 -178 l61 -32 0 -253 0 -254 -46 -11 c-85 -22 -166 -71 -239
-145 -211 -213 -206 -531 11 -750 69 -70 163 -124 233 -133 l41 -6 -2 -500 -3
-500 -60 -17 c-33 -9 -69 -21 -81 -28 -19 -10 -33 4 -175 174 -84 102 -158
192 -162 200 -6 10 3 27 28 56 171 189 95 504 -143 590 -26 9 -58 17 -72 18
-34 1 -33 0 -148 141 l-102 126 0 120 0 121 105 92 c58 51 122 116 143 144
l37 50 3 323 3 323 28 15 c50 25 98 91 116 160 29 105 3 207 -69 277 -54 52
-100 72 -183 76 -60 3 -80 0 -125 -20 -102 -47 -158 -128 -166 -241 -4 -61 -2
-73 27 -132 30 -60 90 -125 117 -125 7 0 15 -7 18 -16 3 -9 6 -136 6 -282 l0
-267 -53 -59 -53 -58 -139 152 c-103 112 -139 158 -137 174 2 12 4 55 5 96 2
64 -2 83 -26 132 -47 97 -135 155 -247 165 -81 8 -147 -17 -214 -78 -137 -125
-135 -317 5 -443 67 -60 129 -80 229 -73 l78 5 131 -133 131 -134 0 -225 0
-224 37 -49 c20 -26 65 -80 100 -119 34 -39 63 -75 63 -80 0 -5 -18 -27 -41
-49 -44 -42 -78 -101 -89 -150 l-6 -30 -109 0 -109 0 -204 219 c-183 197 -203
221 -197 245 56 219 -20 405 -201 496 -55 28 -67 30 -169 30 -101 0 -115 -2
-170 -29 -76 -38 -149 -110 -183 -184 -24 -50 -27 -69 -27 -157 0 -93 2 -105
33 -167 41 -84 128 -167 209 -199 77 -31 205 -32 279 -2 l51 20 208 -220 c114
-121 228 -232 252 -248 60 -37 121 -49 262 -49 l118 0 28 -40 c15 -22 43 -52
63 -66 46 -36 138 -73 179 -74 29 0 47 -17 206 -207 96 -115 184 -217 196
-227 l21 -19 -51 -54 c-50 -53 -109 -164 -124 -230 -3 -18 -10 -33 -13 -33 -4
0 -80 34 -168 76 l-161 76 -6 64 c-10 126 -92 239 -214 297 -58 27 -78 31
-148 31 -106 -1 -176 -28 -253 -99 l-58 -53 -289 137 -290 137 -12 87 c-7 51
-23 107 -37 135 -31 61 -106 136 -171 170 -45 25 -60 27 -160 27 -102 0 -114
-2 -168 -30 -74 -37 -149 -117 -178 -193 -35 -87 -33 -217 4 -293 32 -67 96
-142 147 -174 125 -79 295 -68 420 27 l49 37 193 -90 c106 -50 243 -113 303
-141 61 -28 116 -56 123 -61 6 -5 12 -28 12 -51 0 -94 96 -223 206 -277 57
-28 74 -32 147 -32 101 0 175 26 241 84 l46 40 152 -69 c84 -38 176 -79 204
-91 l50 -22 11 -67 c8 -43 29 -101 60 -162 87 -173 258 -313 428 -351 l55 -12
0 -393 c0 -235 4 -403 10 -419 35 -93 152 -100 203 -12 9 16 13 130 17 426 l5
405 50 11 c244 58 424 247 473 498 l17 89 115 47 c63 26 152 65 197 86 l82 38
36 -32 c84 -74 203 -110 301 -92 172 32 292 150 312 306 l7 59 120 54 c66 30
205 94 308 143 l189 89 38 -30 c132 -104 316 -116 452 -29 130 83 197 264 153
415 -48 168 -183 275 -350 277 -132 1 -229 -45 -308 -148 -43 -57 -80 -165
-75 -221 l3 -39 -295 -147 -295 -146 -50 48 c-59 57 -109 83 -188 100 -112 23
-234 -12 -322 -91 -70 -65 -106 -137 -113 -228 l-5 -69 -159 -77 c-88 -42
-162 -75 -165 -72 -3 3 -15 35 -28 71 -24 70 -44 102 -112 183 l-44 53 188
229 c187 228 188 230 228 231 84 2 211 74 254 144 l21 33 143 5 c118 4 150 8
190 26 52 23 130 97 367 350 l135 144 50 -24 c69 -32 204 -32 287 1 116 45
216 171 236 296 27 169 -63 342 -216 413 -50 24 -69 27 -162 27 -93 0 -112 -3
-162 -27 -79 -37 -152 -108 -190 -185 -40 -81 -50 -202 -24 -279 l16 -47 -53
-61 c-28 -34 -108 -124 -177 -201 -69 -76 -138 -154 -155 -172 l-30 -34 -106
7 -107 7 -6 37 c-7 42 -71 147 -108 176 l-25 20 85 99 c132 156 122 125 122
382 l0 223 130 134 131 134 37 -10 c55 -15 145 -4 207 27 220 107 221 418 2
528 -144 73 -311 26 -394 -112 -39 -65 -49 -125 -36 -205 l10 -60 -78 -85
c-42 -47 -104 -115 -138 -151 l-61 -65 -54 56 -53 57 5 273 c3 182 8 275 15
278 6 2 33 24 59 49 125 116 115 327 -20 425 -167 121 -382 52 -438 -140 -35
-120 19 -267 117 -318 l26 -14 6 -315 c5 -239 10 -323 21 -349 18 -44 125
-157 210 -222 l65 -50 0 -115 0 -115 -105 -132 c-98 -123 -107 -132 -147 -138
-100 -16 -211 -93 -263 -181 -36 -61 -56 -167 -44 -236 11 -68 48 -145 97
-199 32 -35 34 -41 21 -57 -96 -112 -280 -342 -303 -380 -1 -1 -41 10 -88 25
l-87 28 0 501 0 501 41 6 c118 16 277 143 337 267 40 85 51 137 52 235 0 244
-150 460 -364 521 l-66 19 0 257 0 256 46 18 c62 23 129 91 164 165 88 186 14
403 -170 495 -45 23 -71 29 -145 31 -77 3 -98 0 -146 -20z m364 -1521 c138
-57 103 -256 -45 -256 -65 0 -138 70 -138 133 0 43 35 102 72 120 41 20 69 21
111 3z m-63 -1992 c132 -62 232 -186 261 -322 42 -204 -79 -428 -271 -504 -75
-29 -220 -29 -302 0 -155 56 -262 185 -289 350 -29 177 69 380 223 458 88 45
126 54 223 51 76 -2 100 -8 155 -33z"/>
<path d="M5004 4465 c-133 -79 -71 -295 83 -295 92 0 154 56 161 146 11 134
-128 219 -244 149z"/>
</g>
</svg>
